<svg width="104" height="40" viewBox="0 0 104 40" fill="none" xmlns="http://www.w3.org/2000/svg">
<path d="M33.5816 17.0613C33.5816 15.1528 31.7674 13.1258 28.628 13.1258C25.1026 13.1258 21.2297 15.7714 20.6379 21.0494C20.0332 26.3801 23.2755 28.7493 26.5436 28.7493C29.8117 28.7493 31.523 27.4462 33.2728 25.7088C31.7674 23.774 29.8246 24.669 29.4514 24.8665C29.0397 25.0771 28.5122 25.3666 27.4314 25.3666C26.1705 25.3666 24.8838 24.7875 24.8838 22.3788C32.964 21.5628 33.5816 18.9698 33.5816 17.0613ZM29.5801 17.3772C29.5286 17.9695 29.297 18.983 25.2055 19.549C26.0675 16.4164 27.7145 16.1795 28.4736 16.1795C29.1812 16.1795 29.6316 16.7454 29.5801 17.3772ZM15.8901 17.8905C15.8901 17.8905 14.1532 23.4713 14.0116 23.932C13.9602 23.4581 12.6864 13.4417 12.6864 13.4417C9.72708 13.4417 8.1445 15.6003 7.30818 17.8774C7.30818 17.8774 5.19807 23.4713 5.01794 23.9451C5.00507 23.5108 4.69628 17.9432 4.69628 17.9432C4.51614 15.1528 2.02004 13.4549 0 13.4549L2.44464 28.6308C5.54547 28.6177 7.21811 26.4722 8.09303 24.1952C8.09303 24.1952 9.95868 19.2594 10.0359 19.0356C10.0487 19.2462 11.374 28.6308 11.374 28.6308C14.4877 28.6308 16.1603 26.617 17.061 24.419L21.4227 13.4549C18.3476 13.4549 16.7265 15.6003 15.8901 17.8905ZM45.0071 13.0995C43.0899 13.0995 41.6232 14.1656 40.388 15.7319V15.7188L41.4945 6.59741C38.9469 6.59741 36.8754 8.8613 36.4766 12.2308L34.5466 28.5124C36.0134 28.5124 37.5702 28.078 38.4065 26.9724C39.1528 27.9596 40.2722 28.7493 41.932 28.7493C46.2294 28.7493 49.1758 23.6424 49.1758 18.8514C49.1501 14.4815 47.0786 13.0995 45.0071 13.0995ZM44.6082 20.931C44.1579 23.6029 42.7039 25.4193 41.3015 25.4193C39.8862 25.4193 39.2815 24.7743 39.2815 24.7743C39.5517 22.4315 39.7189 20.9968 40.2336 19.7596C40.7482 18.5223 41.9706 16.548 43.2443 16.548C44.4924 16.548 45.0585 18.2459 44.6082 20.931ZM59.9065 13.4549H56.9086L56.9214 13.2969C57.1273 11.2963 57.5905 10.2433 59.1216 10.0722C60.1638 9.96692 60.627 9.41411 60.7428 8.80865C60.8329 8.33482 61.1159 6.68955 61.1159 6.68955C55.0944 6.65006 53.203 9.30881 52.7141 13.3628L52.7012 13.4549H52.6369C51.659 13.4549 50.5782 14.5868 50.3981 16.0215L50.3338 16.548H52.341L50.6554 30.7894L50.1408 33.3429C50.2051 33.3429 50.2823 33.3561 50.3467 33.3561C53.1644 33.2508 54.9657 30.9737 55.3646 27.67L56.677 16.548H57.6162C58.5426 16.548 59.6234 15.6003 59.8164 14.0209L59.9065 13.4549ZM75.5007 13.1916C72.0396 13.1916 68.7715 15.7978 67.7679 19.8912C66.7643 23.9846 68.2826 28.8283 73.3777 28.8283C78.46 28.8283 81.3935 23.7872 81.3935 19.5884C81.3935 15.416 78.6272 13.1916 75.5007 13.1916ZM76.9031 20.7994C76.723 22.6552 75.9253 25.4719 73.738 25.4719C71.5378 25.4719 71.8466 22.1814 72.0653 20.6151C72.2969 18.9435 73.2104 16.5612 75.179 16.5612C76.9417 16.5612 77.109 18.7066 76.9031 20.7994ZM98.4931 17.8905C98.4931 17.8905 96.7562 23.4713 96.6146 23.932C96.5632 23.4581 95.2894 13.4417 95.2894 13.4417C92.3301 13.4417 90.7475 15.6003 89.9112 17.8774C89.9112 17.8774 87.8011 23.4713 87.6209 23.9451C87.6081 23.5108 87.2993 17.9432 87.2993 17.9432C87.1191 15.1528 84.623 13.4549 82.603 13.4549L85.0348 28.6308C88.1356 28.6177 89.8082 26.4722 90.6832 24.1952C90.6832 24.1952 92.5488 19.2594 92.6131 19.0356C92.626 19.2462 93.9513 28.6308 93.9513 28.6308C97.065 28.6308 98.7376 26.617 99.6383 24.419L104 13.4549C100.938 13.4549 99.3166 15.6003 98.4931 17.8905ZM62.7371 6.68955L60.2153 27.4989L59.7006 30.0655C59.7649 30.0655 59.8421 30.0787 59.9065 30.0787C62.6213 30.0392 64.5513 27.6042 64.9115 24.5374L66.3655 12.5993C66.8029 8.95344 64.6799 6.68955 62.7371 6.68955Z" fill="#C1C4D0"/>
</svg>
